<svg xmlns="http://www.w3.org/2000/svg" width="320" height="320" fill="none"><path fill="#000" d="M72.75 149.15c-4.2-4.32-11.05-4.64-17.41-3.8-5.83.78-11.73 2.6-15.83 3.86-.46.13-.89.27-1.3.4-3.1.93-6.71 2.45-9.98 4.51-3.25 2.04-6.25 4.69-7.98 7.93a38.53 38.53 0 0 0-3.21 8.09c-.66 2.52-1.02 5.26-.6 7.74a1.4 1.4 0 0 0-.58 1.6l13.53 44.44c1.7 5.58 4.1 11.1 6.48 16.54.98 2.24 1.95 4.47 2.87 6.69 3.17 7.67 5.7 15.3 5.85 23.26a1.4 1.4 0 1 0 2.81-.05c-.14-8.51-2.86-16.54-6.06-24.29-.96-2.33-1.96-4.62-2.96-6.9-2.34-5.38-4.65-10.66-6.3-16.07l-13.14-43.18c.46-.34.69-.96.5-1.54-.62-2.07-.4-4.74.32-7.53.72-2.76 1.9-5.45 2.97-7.48 1.4-2.63 3.97-4.96 7-6.87 3.02-1.9 6.4-3.32 9.3-4.2l1.3-.4c4.13-1.27 9.8-3.02 15.38-3.75 6.28-.84 11.85-.3 15.02 2.96 1.13 1.16 1.53 2.96 1.29 5-.25 2.01-1.12 4-2.14 5.25-1.5 1.82-3.32 2.83-5.74 3.85-9.81 4.13-20.18 7.17-30.5 10.1-2.3.65-4.37.99-6.43 1.26l-1.55.2c-1.56.2-3.17.4-4.85.71a1.4 1.4 0 0 0 .52 2.77c1.59-.3 3.08-.49 4.62-.68l1.63-.2c2.12-.29 4.34-.65 6.83-1.35 10.31-2.93 20.83-6.01 30.82-10.21 2.57-1.08 4.9-2.32 6.82-4.66a12.95 12.95 0 0 0 2.28-4.42 2269.1 2269.1 0 0 0 9.02 28.1l.02.04a1861.1 1861.1 0 0 1 10.98 34.45c1.05 3.46 2.33 6.85 3.6 10.2l.01.04c1.27 3.38 2.53 6.72 3.58 10.14.27.91.66 1.94 1.05 2.99l.04.1c.41 1.09.83 2.21 1.19 3.33.73 2.31 1.05 4.26.64 5.61a1.4 1.4 0 0 0 1.15 1.8c-.04.22-.11.51-.23.85-.25.76-.66 1.66-1.16 2.58-.49.91-1.04 1.8-1.55 2.53a9.01 9.01 0 0 1-1.16 1.44l-1.1.96c-2.92 2.55-5.86 5.1-8.99 6.88-1.24.7-2.4 1.65-3.45 2.51l-.67.55a12.57 12.57 0 0 1-3.73 2.29c-1.51.5-3.01.74-4.64.98l-.25.03c-1.52.22-3.16.46-4.82.97-10.39 3.16-19.41-.29-29.08-5.44a1.4 1.4 0 0 0-1.32 2.48c9.78 5.22 19.69 9.16 31.22 5.65 1.45-.44 2.9-.65 4.46-.88l.2-.03a28.5 28.5 0 0 0 5.13-1.1c1.78-.6 3.28-1.71 4.6-2.76l.75-.62a21.91 21.91 0 0 1 2.99-2.18c3.4-1.92 6.56-4.69 9.45-7.2l1.1-.96c.5-.43 1.08-1.17 1.63-1.96.57-.82 1.17-1.8 1.71-2.81.54-1 1.03-2.06 1.35-3.01.16-.48.3-.97.36-1.44.06-.44.08-.98-.08-1.49a1.4 1.4 0 0 0-.94-.94c.25-1.99-.27-4.2-.89-6.14-.38-1.2-.83-2.4-1.23-3.48l-.02-.04c-.41-1.09-.77-2.05-1.02-2.87a167.58 167.58 0 0 0-3.63-10.31v-.01a163.83 163.83 0 0 1-3.56-10.06 1861.61 1861.61 0 0 0-11-34.5v-.03c-3.74-11.47-7.47-22.9-10.95-34.35a1.41 1.41 0 0 0-1.24-1 7.07 7.07 0 0 0-1.1-1.47Z"/><path fill="#000" d="M83.85 248.07a1.4 1.4 0 0 1 .93-1.76 30.18 30.18 0 0 1 14.01-1.18 1.4 1.4 0 0 1-.4 2.79c-4.6-.67-8.3-.28-12.79 1.08a1.4 1.4 0 0 1-1.75-.93ZM66.82 251.78c-4.4 1.34-7.82 3.32-11.44 5.49a1.4 1.4 0 1 0 1.45 2.41c3.6-2.16 6.77-3.97 10.81-5.2a1.4 1.4 0 0 0-.82-2.7ZM233.88 15.25a1.4 1.4 0 0 1 1.56-1.24c1.5.17 2.76.93 3.82 1.9 4.59.22 8.63 1.74 12.43 3.58 1.6.78 3.2 1.63 4.77 2.47l1.28.68c2 1.07 3.99 2.08 6.04 2.94 6.92 2.9 13.6 6.33 20.23 9.74 2.43 1.25 4.86 2.5 7.29 3.7 2.07 1.04 4.13 2.25 6.13 3.44h.01l2.46 1.43a42.7 42.7 0 0 0 8.55 3.97c1.36.42 3.7 1.43 5.72 2.7 1.01.63 2 1.37 2.76 2.18a4.59 4.59 0 0 1 1.43 3.03 1.4 1.4 0 0 1-2.82 0c0-.14-.1-.51-.66-1.1-.53-.57-1.3-1.16-2.2-1.73a24.37 24.37 0 0 0-5.06-2.4c-3.25-.99-6.25-2.56-9.12-4.2-.88-.5-1.74-1.01-2.59-1.51-1.97-1.16-3.89-2.3-5.87-3.29a773.4 773.4 0 0 1-7.4-3.76c-6.6-3.39-13.14-6.74-19.95-9.6a76.63 76.63 0 0 1-6.27-3.05l-1.32-.7c-1.56-.84-3.09-1.65-4.64-2.4a32.75 32.75 0 0 0-8.65-3.01l.44.69a65.8 65.8 0 0 1 2.1 3.73l.11.22a29.86 29.86 0 0 0 1.72 2.98c1.28 1.8 2.62 3.54 3.99 5.32 1.02 1.33 2.06 2.68 3.1 4.1a56.57 56.57 0 0 1 6.3 10.27c2.47 5.53 5.46 10.9 8.49 16.32l.74 1.33c3.26 5.85 6.5 11.79 9.04 17.96 3.15 7.68 7.15 15.09 11.3 22.45l2.7 4.75c3.28 5.76 6.56 11.53 9.47 17.35a1.4 1.4 0 0 1-2.51 1.26 364.17 364.17 0 0 0-9.39-17.17l-2.72-4.8c-4.17-7.38-8.24-14.92-11.46-22.77-2.46-6-5.63-11.8-8.9-17.66L265.6 64c-3.01-5.4-6.06-10.87-8.6-16.52a53.84 53.84 0 0 0-5.98-9.76c-.96-1.3-1.98-2.62-3-3.96a182.61 182.61 0 0 1-4.13-5.49 32.42 32.42 0 0 1-1.9-3.28l-.11-.2a63.2 63.2 0 0 0-2.02-3.6c-.58-.94-1.18-1.8-1.8-2.5a1.4 1.4 0 0 1-1.35-1.24 4.53 4.53 0 0 0-.33-.2c-5.35 6.55-9.04 13.54-12.9 20.85a363.7 363.7 0 0 1-4.28 7.93 1126.5 1126.5 0 0 0-22.08 41.83c-3 5.92-5.82 11.93-8.64 17.97l-.36.78c-2.7 5.77-5.4 11.56-8.26 17.28-.37.74-.69 1.7-1.01 2.84l-.4 1.45-.45 1.65.52-.38c1.99-1.42 4.15-2.86 6.57-3.67a1.4 1.4 0 0 1 .9 2.68c-2 .66-3.85 1.87-5.83 3.28l-1.05.76c-.97.72-1.99 1.45-3.03 2.13-.32.5-.68.99-1.1 1.4 29.62-.02 59.48-.4 88.88-2.75 2.6-.2 5.22-.48 7.88-.75 5.71-.59 11.52-1.19 17.27-1.19.55 0 1.44-.06 2.6-.14l.45-.03c1.34-.1 2.9-.2 4.44-.24 1.51-.03 3.06.02 4.34.24.64.1 1.27.27 1.82.54.55.25 1.14.67 1.48 1.35a1.4 1.4 0 0 1-2.5 1.3.87.87 0 0 0-.19-.11c-.23-.11-.58-.22-1.09-.3-1-.18-2.34-.23-3.8-.2s-2.97.13-4.3.22l-.46.04c-1.12.08-2.14.15-2.8.15-5.6 0-11.16.57-16.8 1.15-2.68.28-5.38.56-8.11.78-30.69 2.45-61.85 2.76-92.63 2.76a1.4 1.4 0 1 1 0-2.81h.54c-.1-.31-.1-.64 0-.94a1.4 1.4 0 0 1 .67-1.72c.44-.23.88-.48 1.3-.75l.03-.03c.44-.87.81-1.92 1.15-3.08l.56-2c.14-.5.27-1.02.43-1.56.33-1.16.7-2.34 1.2-3.33a712.11 712.11 0 0 0 8.23-17.22l.36-.78a631.25 631.25 0 0 1 8.68-18.04 1128.5 1128.5 0 0 1 22.14-41.93c1.43-2.56 2.78-5.12 4.13-7.68 3.84-7.27 7.66-14.49 13.05-21.2a1.39 1.39 0 0 1-.04-.53Z"/><path fill="#000" d="M317.42 60.47v-2.1h-2.81v1.58c0 2.47-.36 4.96-.83 7.51l-.61 3.08c-.32 1.55-.64 3.13-.9 4.66-.93 5.62-2.25 10.9-3.6 16.28a230.44 230.44 0 0 0-5.27 26.05c-.19 1.34-.5 2.7-.82 4.12l-.32 1.43a28 28 0 0 0-.8 5.92 1.4 1.4 0 0 0 2.82 0c0-1.66.32-3.43.73-5.32l.3-1.32c.33-1.45.68-2.97.88-4.43.75-5.23 1.81-11.22 2.96-16.37.68-3.08 1.45-6.15 2.22-9.23a213.07 213.07 0 0 0 3.69-16.66c.25-1.51.55-2.98.85-4.47.21-1.05.43-2.12.63-3.22a46 46 0 0 0 .88-7.51ZM206.02 117.03a1.4 1.4 0 1 0-1.56-2.35l-1.03.7a50.81 50.81 0 0 1-3.35 2.16c-1.6.91-3.09 1.53-4.32 1.6a1.4 1.4 0 0 0 .18 2.81c1.9-.12 3.85-1 5.53-1.97 1.3-.74 2.56-1.6 3.62-2.32l.93-.63ZM236.28 100.78a1.4 1.4 0 0 1 0 1.99c-.36.36-.87.68-1.36.96-.51.3-1.13.6-1.79.9-.8.38-1.71.79-2.64 1.2l-1.75.78a39.87 39.87 0 0 0-3.94 2 6.96 6.96 0 0 0-1.29.97 1.4 1.4 0 0 1-2.77-.47 3 3 0 0 1 1-1.75c.44-.42 1-.8 1.6-1.16a42.37 42.37 0 0 1 4.24-2.15l1.82-.81c.9-.4 1.75-.78 2.53-1.15.63-.3 1.18-.57 1.6-.81.46-.26.68-.43.75-.5a1.4 1.4 0 0 1 2 0ZM260.68 90.57a1.4 1.4 0 1 0-1.99-2c-.97.97-2.47 1.68-4.33 2.35-.52.2-1.09.38-1.66.58a38.8 38.8 0 0 0-3.94 1.49 1.4 1.4 0 1 0 1.2 2.55c1.04-.5 2.2-.88 3.44-1.3l1.92-.67c1.89-.68 3.92-1.56 5.36-3ZM289.11 72.04c.35.7.07 1.54-.63 1.9l-2.55 1.25c-1.65.8-3.26 1.6-4.93 2.48a1.4 1.4 0 0 1-1.32-2.49c1.7-.9 3.4-1.73 5.06-2.55.83-.4 1.66-.8 2.48-1.22a1.4 1.4 0 0 1 1.89.63ZM313.64 58.99a1.4 1.4 0 0 0-.89-2.67c-4.22 1.4-10.35 4.88-13.63 7.79a1.4 1.4 0 1 0 1.87 2.1c2.97-2.64 8.77-5.93 12.65-7.22ZM54.44 29.96h-2.81v10.02a1.4 1.4 0 1 0 2.81 0V29.96ZM45.66 37.64a1.4 1.4 0 0 1 1.26 1.54c-.45 4.57-2.06 9.36-3.9 13.94-.93 2.3-1.93 4.56-2.89 6.74v.02c-.97 2.2-1.9 4.3-2.69 6.28-.2.5-.44 1.25-.74 2.17l-.32 1a53.2 53.2 0 0 1-1.6 4.38 16.96 16.96 0 0 1-2.33 4.06c-.92 1.11-2.19 2.1-3.82 2.1a1.4 1.4 0 0 1 0-2.81c.41 0 .96-.25 1.65-1.08.68-.82 1.32-2 1.9-3.38A50.51 50.51 0 0 0 34 67.56c.31-.96.6-1.84.84-2.45a202.3 202.3 0 0 1 2.71-6.36l.7-1.6a1.4 1.4 0 0 1-.62-.77 82.3 82.3 0 0 1-1.23-4.18l-.73-2.58a24.31 24.31 0 0 0-2.6-6.08 1.4 1.4 0 1 1 2.39-1.5 27.06 27.06 0 0 1 2.9 6.77c.3.97.55 1.89.8 2.8l.58 2.08.67-1.62c1.82-4.52 3.3-9 3.72-13.17a1.4 1.4 0 0 1 1.54-1.26ZM57.26 51.24c0-.78.63-1.4 1.4-1.4h14.09a1.4 1.4 0 1 1 0 2.8H58.67a1.4 1.4 0 0 1-1.41-1.4ZM60.02 55.53a1.4 1.4 0 1 0-.83 2.69c3.59 1.1 7.21 1.06 10.67 1.02l1.95-.02a1.4 1.4 0 1 0 0-2.82l-2.1.02c-3.45.04-6.56.07-9.7-.9ZM92.1 39.83c-1.26-.04-2.94.74-4.28 2.08a1.4 1.4 0 1 1-1.99-2c1.67-1.65 4.05-2.97 6.36-2.9a4.9 4.9 0 0 1 3.35 1.41 7.13 7.13 0 0 1 1.85 3.91c.33 1.82.2 3.36-.24 4.74a11.42 11.42 0 0 1-1.94 3.47c-.38.5-.78.97-1.17 1.43l-.04.05c-.37.44-.74.87-1.09 1.31a11.5 11.5 0 0 0-1.75 2.91c-.16.41-.09.56-.08.57.02.04.11.2.5.38.81.38 2.25.56 4.05.5 1.75-.05 3.63-.33 5.2-.72.78-.2 1.45-.4 1.97-.62.56-.23.8-.41.87-.47a1.4 1.4 0 0 1 2 1.99c-.48.47-1.15.81-1.8 1.08-.68.28-1.5.54-2.37.75-1.74.44-3.82.75-5.78.8-1.9.07-3.9-.1-5.33-.76a3.68 3.68 0 0 1-1.87-1.75c-.41-.9-.34-1.86.02-2.78.56-1.43 1.36-2.6 2.16-3.62.38-.48.77-.95 1.14-1.38l.05-.06c.4-.46.76-.9 1.1-1.33a8.65 8.65 0 0 0 1.48-2.62c.3-.9.4-1.98.15-3.37-.23-1.27-.65-2-1.06-2.4-.4-.39-.88-.58-1.46-.6ZM126.31 44.73a1.4 1.4 0 1 0-1.99-2c-.75.75-1.53 1.52-2.34 2.3-1.14 1.11-2.31 2.25-3.46 3.42a25.4 25.4 0 0 1-3.33-3.67 1.4 1.4 0 1 0-2.27 1.66 28.23 28.23 0 0 0 3.67 4.06 40.2 40.2 0 0 0-3.7 4.65 1.4 1.4 0 1 0 2.33 1.57c1-1.5 2.2-2.96 3.5-4.38 1.63 1.31 3.32 2.53 4.95 3.7.92.67 1.82 1.31 2.68 1.96a1.4 1.4 0 0 0 1.69-2.25 191 191 0 0 0-2.88-2.11h-.01c-1.54-1.11-3.05-2.2-4.48-3.35 1.03-1.05 2.1-2.08 3.15-3.12l2.5-2.44ZM133.62 40.69a1.4 1.4 0 0 0-1.58 2.33c2.81 1.9 5.18 4.28 7.64 6.74l.04.04.56.56a1.4 1.4 0 1 0 2-2l-.64-.62c-2.42-2.43-4.98-5-8.02-7.05Z"/><path fill="#000" d="M147.38 40.91c0 6.13-2.52 11.63-5.23 16.8l-1.4 2.65c-2.31 4.3-4.52 8.42-5.62 12.81a1.4 1.4 0 1 1-2.73-.68c1.2-4.76 3.6-9.25 5.9-13.55l1.35-2.53c2.7-5.15 4.91-10.12 4.91-15.5a1.4 1.4 0 1 1 2.82 0ZM41.98 87.97a1.4 1.4 0 0 0-2.3 1.64c1.99 2.78 3.72 5.74 5.47 8.75l1.68 2.85a274 274 0 0 1-.78 2.67l-.03.1c-1.39 4.71-2.84 9.65-2.84 14.85a1.4 1.4 0 1 0 2.81 0c0-4.75 1.34-9.34 2.76-14.15l.03-.1c1.39-4.7 2.85-9.65 2.85-14.85a1.4 1.4 0 0 0-2.82 0c0 2.57-.4 5.1-.98 7.63l-.19-.32c-1.77-3.05-3.6-6.17-5.66-9.07ZM61.01 88.8v-.32c-.01-.06-.03-.26-.1-.47a1.46 1.46 0 0 0-1.12-.93 1.42 1.42 0 0 0-1.38.55c-.08.1-.13.2-.16.26-.1.2-.16.42-.2.56l-.15.62a170.34 170.34 0 0 0-1.99 11.74l-.07.7a58.11 58.11 0 0 0-.27 3.44c-.04 1.3.01 2.61.34 3.8a6.07 6.07 0 0 0 2.07 3.2 8.95 8.95 0 0 0 4.21 1.7 1.4 1.4 0 1 0 .46-2.78 6.2 6.2 0 0 1-2.91-1.11 3.26 3.26 0 0 1-1.11-1.76 9.89 9.89 0 0 1-.24-2.95c.03-.99.14-2.06.25-3.24l.07-.73a173.02 173.02 0 0 1 1.92-11.32c.24-.25.38-.6.38-.97Z"/><path fill="#000" fill-rule="evenodd" d="M73.9 95.26c2.61 1.76 4.47 5.75 3.78 9.73-.3 1.7-1.23 4.04-2.68 5.61-.74.8-1.72 1.5-2.92 1.7-1.26.2-2.51-.2-3.66-1.14-2.26-1.83-3.35-3.5-3.72-5.46a11.6 11.6 0 0 1-.13-2.77c.02-.46.06-.93.1-1.41v-.02l.1-1.52a1.4 1.4 0 0 1 1.32-1.33c.7-1.89 1.74-3.24 3.1-3.9 1.65-.8 3.37-.4 4.72.51Zm-3.48 2.03c-.56.27-1.36 1.08-1.95 3.15a1.4 1.4 0 0 1-.97.97l-.03.3-.09 1.36c-.04.84-.03 1.5.09 2.1.2 1.1.8 2.24 2.72 3.8.67.55 1.13.6 1.44.55.37-.06.81-.3 1.3-.83a9.08 9.08 0 0 0 1.98-4.18c.5-2.95-.94-5.8-2.58-6.91-.78-.53-1.41-.56-1.91-.31Z" clip-rule="evenodd"/><path fill="#000" d="M79.41 84.08A1.4 1.4 0 1 0 77.35 86c6.48 6.96 8.28 16.96 5.33 25.81a1.4 1.4 0 1 0 2.67.9c3.25-9.77 1.3-20.86-5.94-28.63ZM92 101c0-.78.62-1.41 1.4-1.41 3.38 0 6.35.3 9.66.96a1.4 1.4 0 0 1-.55 2.77 44.46 44.46 0 0 0-9.11-.92A1.4 1.4 0 0 1 92 101ZM91.52 105.22a1.4 1.4 0 0 0 0 2.82h11.27a1.4 1.4 0 0 0 0-2.82H91.52ZM119.14 100.6a11.3 11.3 0 0 0-.87 2.43 1.4 1.4 0 1 1-2.8-.31 13 13 0 0 1 1.1-3.27 51.24 51.24 0 0 1 1.96-3.9 29.5 29.5 0 0 1 1.98-3.17c.14-.2.3-.38.44-.54.13-.14.33-.33.58-.48.15-.1.92-.52 1.71.03.35.24.5.57.57.78.08.2.1.4.1.53.02.58.09 1.5.18 2.7l.13 1.69c.14 1.97.29 4.3.34 6.6.06 2.27.02 4.55-.23 6.38-.12.9-.3 1.77-.59 2.5a3.42 3.42 0 0 1-1.55 1.89 1.4 1.4 0 0 1-1.3-2.5c.02-.02.11-.13.23-.43.17-.42.31-1.03.42-1.84.22-1.6.26-3.7.2-5.94-.05-2.22-.2-4.5-.33-6.46l-.08-.98a48.52 48.52 0 0 0-2.2 4.29Z"/><path fill="#000" fill-rule="evenodd" d="M27.2 37.94c-.12-1.14-.54-2.19-1.46-2.78a3.04 3.04 0 0 0-2.72-.22c-.78.28-1.5.8-2.07 1.36a5.8 5.8 0 0 0-1.36 2.04c-2.71 7.37-2.7 14.27-2.7 21.58v1.18c0 1.4.05 2.83.1 4.27l.01.38c.05 1.56.1 3.13.08 4.68-.03 3.1-.3 6.06-1.25 8.7-.4 1.11-.96 1.53-1.34 1.7a5.27 5.27 0 0 0-.8 0c-.09.01-.3.04-.54.15a1.46 1.46 0 0 0-.82 1.25 1.42 1.42 0 0 0 .74 1.3c.12.07.24.11.31.14.37.11.82.1 1.25.03.67.2 1.24.78 1.73 2 .63 1.58.93 3.86 1.03 6.45.09 2.56-.03 5.3-.18 7.76l-.12 1.9c-.1 1.64-.2 3.1-.2 4.09a25.23 25.23 0 0 1-.4 4.17c-.14.96-.28 1.96-.37 2.95-.23 2.56-.12 5.36 1.51 7.92 1.36 2.14 3.2 3.23 5.22 3.41 1.95.18 3.9-.5 5.56-1.5a1.4 1.4 0 0 0-1.45-2.41 6.59 6.59 0 0 1-3.85 1.1c-1.08-.1-2.17-.64-3.1-2.1-1.14-1.8-1.3-3.83-1.09-6.17.08-.9.21-1.81.35-2.75l.12-.85c.17-1.23.32-2.51.32-3.77 0-.9.08-2.2.19-3.8l.12-2.02c.15-2.48.28-5.33.18-8.03-.1-2.67-.41-5.34-1.22-7.39a7.2 7.2 0 0 0-1.64-2.55 6.4 6.4 0 0 0 1.14-2.02c1.1-3.08 1.39-6.4 1.42-9.63.02-1.62-.03-3.24-.08-4.8l-.02-.38c-.05-1.44-.1-2.84-.1-4.18v-1.05c0-7.41 0-13.85 2.53-20.74.1-.28.35-.66.7-1.01.36-.35.74-.6 1.04-.7.13-.05.2-.06.25-.06.04.07.14.26.19.71a1.4 1.4 0 1 0 2.8-.3Zm-2.94-.4h-.01Z" clip-rule="evenodd"/><path fill="#000" d="M190.69 222.94a4.08 4.08 0 0 0-3.2-4.08 6.73 6.73 0 0 0-4.96.66c-2.74 1.58-4.38 4.24-5.34 7.27-.96 3.02-1.27 6.53-1.25 10.03.02 5.33.8 10.9 1.38 15 .18 1.25.34 2.37.44 3.3.27 2.26.71 4.77 1.17 7.39l.3 1.76c.56 3.26 1.1 6.65 1.37 10 .54 6.74-.05 12.96-3.49 17.37-.2.26-.3.25-.4.24a2.89 2.89 0 0 1-1.2-.6 16.64 16.64 0 0 1-1.89-1.63c-.45-.43-.93-.89-1.33-1.19a1.4 1.4 0 0 0-1.69 2.25c.26.2.6.51 1.05.95l.28.26c.55.52 1.23 1.15 1.94 1.66.69.49 1.57 1 2.54 1.1 1.11.11 2.15-.31 2.93-1.3 4.11-5.3 4.62-12.44 4.07-19.34-.28-3.48-.84-6.98-1.4-10.25l-.32-1.8a138 138 0 0 1-1.13-7.2c-.12-1.02-.29-2.2-.47-3.52-.58-4.08-1.32-9.35-1.34-14.46-.01-3.36.3-6.55 1.12-9.17.83-2.62 2.14-4.57 4.06-5.67a3.92 3.92 0 0 1 2.81-.4c.4.11.69.3.85.49.15.17.28.44.28.88a1.4 1.4 0 0 0 2.82 0Z"/><path fill="#000" fill-rule="evenodd" d="M222.46 246.1a1.4 1.4 0 1 0-2.52-1.26c-2.23 4.45-4.52 8.8-7.14 12.94l-1.28-1.78c-1.38-1.93-2.78-3.9-4.23-5.76a1.4 1.4 0 0 0-2.22 1.72c1.42 1.83 2.75 3.7 4.11 5.61l1.96 2.73-.33.48-.78 1.18-1.41 2.13a36.95 36.95 0 0 1-1.22 1.72c-.45.24-.75.7-.75 1.25 0 .1 0 .5.3.89a1.44 1.44 0 0 0 1.98.3l.23-.18c.19-.18.38-.42.54-.63.35-.45.8-1.1 1.25-1.77l1.46-2.2.5-.78a61.73 61.73 0 0 0 5.42 6.3 1.4 1.4 0 1 0 1.99-1.99 61.84 61.84 0 0 1-5.74-6.78c2.96-4.56 5.48-9.32 7.88-14.13Zm-13 20.96ZM249.58 235.4a1.4 1.4 0 0 0 1.48-.01l.15.77c.83 4.88.94 9.93 1.05 15.03.04 1.93.08 3.87.16 5.81a7.75 7.75 0 0 0-3.86-2.27 9.7 9.7 0 0 0-4.73.28 7.48 7.48 0 0 0-5.7 7.7c.2 3.27 2.61 6.3 6.93 6.54a8.9 8.9 0 0 0 6.37-1.97c.37-.28.7-.55 1.01-.8a9.06 9.06 0 0 1 3-1.84 1.4 1.4 0 0 0-.7-2.72c.32-.27.44-.6.48-.72.11-.33.12-.72.13-.97 0-.59-.03-1.52-.1-2.82v-.12c-.08-1.93-.13-3.92-.17-5.95-.11-5.18-.23-10.56-1.1-15.66-.08-.48-.18-1.03-.32-1.53a4.76 4.76 0 0 0-.66-1.51 2.14 2.14 0 0 0-.88-.72c-.46-.2-.96-.2-1.4-.03-.75.28-1.26.97-1.63 1.59a1.4 1.4 0 0 0 .49 1.93Zm3.49 26.7c.15.07.4.16.69.17-1.38.61-2.44 1.47-3.3 2.19l-.73.58a6.12 6.12 0 0 1-4.52 1.4c-2.81-.16-4.14-1.98-4.26-3.9a4.67 4.67 0 0 1 3.62-4.82 6.94 6.94 0 0 1 3.37-.24c.88.2 1.74.69 2.68 1.71.53.58.93 1.14 1.26 1.6l.08.12.37.5c.07.1.16.2.25.3.08.09.25.25.49.38Z" clip-rule="evenodd"/><path fill="#000" d="M278.31 251.81c.65.44.82 1.31.38 1.96a383.22 383.22 0 0 1-5.2 7.45l.1.15a38.5 38.5 0 0 0 2.88 4 9.27 9.27 0 0 0 2.62 2.3 1.4 1.4 0 1 1-1.26 2.52 11.92 11.92 0 0 1-3.5-3 37.47 37.47 0 0 1-2.58-3.48 158.87 158.87 0 0 0-3.36 5.04 1.4 1.4 0 1 1-2.38-1.51c1.31-2.06 2.7-4.1 4.1-6.1l-1.15-1.87-.54-.9a51.34 51.34 0 0 0-2.35-3.62 1.4 1.4 0 0 1 2.26-1.68c.77 1.05 1.62 2.4 2.49 3.83l.56.92.49.8.55-.79a383 383 0 0 0 3.94-5.64 1.4 1.4 0 0 1 1.95-.38Z"/><path fill="#000" fill-rule="evenodd" d="M133.97 156.49a1.4 1.4 0 0 0-2.75-.59c-.06.27-.27.81-.68 1.65-.4.8-.94 1.78-1.58 2.87-1.19 2.02-2.72 4.4-4.3 6.7a128 128 0 0 0-1.27-2.81c-.17-.36-.83-1.63-1.51-2.68a7.37 7.37 0 0 0-1.17-1.46 2.02 2.02 0 0 0-1.25-.54 1.6 1.6 0 0 0-1.09.38c-.29.25-.43.54-.51.75a1.4 1.4 0 0 0 1.3 1.9c.1.13.23.3.36.5.6.93 1.2 2.08 1.32 2.35.66 1.41 1.3 2.84 1.92 4.3a71.65 71.65 0 0 1-3.3 4.23c-.7.83-1.3 1.46-1.76 1.86-.17.15-.3.25-.39.3a1.4 1.4 0 0 0-.17 2.78c.65.14 1.2-.13 1.47-.27.32-.18.64-.43.95-.7a21.5 21.5 0 0 0 2.05-2.14c.75-.89 1.58-1.93 2.44-3.07.83 1.96 1.67 3.93 2.57 5.88a1.4 1.4 0 1 0 2.56-1.18c-.94-2.03-1.82-4.1-2.7-6.19l-.16-.37-.34-.79a137.16 137.16 0 0 0 5.41-8.3 48.68 48.68 0 0 0 1.67-3.05c.42-.85.77-1.67.9-2.31Zm-16.76 19.77.03-.01-.03.01Zm1.64-13.97c-.03-.02-.03-.03 0 0Zm25.83-4.94a1.4 1.4 0 0 1 1.08 1.67 57.8 57.8 0 0 0-.89 11.25c.05 1.01.14 1.89.3 2.56.12.51.25.8.34.96.28-.15.78-.55 1.52-1.45.53-.66 1.15-1.88 1.8-3.43a103.24 103.24 0 0 0 1.8-4.69 25.4 25.4 0 0 1 1.51-3.56c.12-.19.3-.46.55-.67.24-.2.94-.67 1.77-.23.6.32.8.9.85 1.09.09.27.14.58.17.89.19 1.89-.22 3.93-.7 5.79-.2.82-.43 1.59-.63 2.31-.3 1.01-.56 1.94-.75 2.85l-3.96 18.43-.2 1.02a32.23 32.23 0 0 1-1.56 5.72c-.94 2.29-2.48 4.47-5.24 5.5-2.69 1-4.99.26-6.89-.93-.93-.59-1.79-1.3-2.57-1.99l-.96-.86c-.42-.39-.82-.75-1.25-1.11a1.4 1.4 0 0 1 1.83-2.15l1.38 1.23.87.78c.74.66 1.47 1.25 2.2 1.72 1.44.9 2.82 1.26 4.4.67 1.76-.65 2.85-2.04 3.62-3.93.66-1.6 1.02-3.37 1.39-5.13l.23-1.13 3.95-18.43.16-.68c-.5 1.04-1.02 2-1.59 2.7a7.69 7.69 0 0 1-2.64 2.28c-.47.2-1 .32-1.56.23a2.53 2.53 0 0 1-1.4-.71 5 5 0 0 1-1.18-2.45c-.21-.91-.32-1.97-.37-3.08-.2-4.37.56-10.18.94-11.96a1.4 1.4 0 0 1 1.68-1.09Zm.69 16.5Zm18.66-7.72-.94-.2a1.4 1.4 0 0 1 .59-2.75l.9.19c1.76.37 4.95 1.03 7.8 1.75 1.71.44 3.37.9 4.54 1.36.55.22 1.13.48 1.55.8.18.16.55.48.7 1a1.61 1.61 0 0 1-.5 1.66c-1.04.95-2.32 1.9-3.64 2.84-.3.2-.59.42-.88.63-1.06.75-2.12 1.5-3.15 2.3-2.69 2.07-4.8 4.15-5.54 6.38a5.88 5.88 0 0 0-.42 1.89c.2.09.6.18 1.43.26a66.17 66.17 0 0 0 1.43.13l1.82.17c1.43.16 2.87.3 4.32.43 4.52.44 9.08.87 13.64 1.85a1.4 1.4 0 0 1-.6 2.75c-4.37-.94-8.71-1.35-13.19-1.78-1.47-.14-2.96-.28-4.47-.45-.64-.07-1.22-.12-1.75-.16l-.24-.02c-.44-.04-.87-.07-1.25-.12a7.1 7.1 0 0 1-2.47-.58 2.7 2.7 0 0 1-1.48-2.3 8.2 8.2 0 0 1 .56-2.96c1.04-3.11 3.79-5.64 6.49-7.72 1.07-.83 2.2-1.63 3.26-2.39l.85-.6c.75-.54 1.45-1.05 2.08-1.54-.97-.35-2.3-.72-3.78-1.1-2.78-.7-5.9-1.35-7.66-1.72Zm1.02 17.92ZM285.57 161.14c0-.62-.1-1.28-.28-1.96a33 33 0 0 0 2.25-.84 1.4 1.4 0 0 0-1.08-2.6c-.71.3-1.44.56-2.17.8l-.27-.52a20.27 20.27 0 0 0-3.69-4.94 11.22 11.22 0 0 0-5.07-3.04 5.82 5.82 0 0 0-5.63 1.65c-.44.45-1.09 1.42-1.7 2.5a27.76 27.76 0 0 0-1.86 4c-.51 1.4-.92 2.97-.83 4.35.04.7.21 1.46.64 2.1a3.4 3.4 0 0 0 2.15 1.45c.22 1.75.67 3.73 1.42 5.49a9.7 9.7 0 0 0 2.6 3.72 5.8 5.8 0 0 0 4.55 1.31c3.2-.4 5.46-2.73 6.85-5.3a17.94 17.94 0 0 0 2.12-8.17Zm-2.82 0c0-.33-.05-.72-.16-1.15l-1.51.41-.32.1a43.1 43.1 0 0 0-6.36 2.09l-.3.13a24.25 24.25 0 0 1-3.25 1.23c.2 1.49.59 3.11 1.19 4.52a6.96 6.96 0 0 0 1.8 2.66 3 3 0 0 0 2.41.69c1.93-.24 3.55-1.69 4.73-3.86a15.13 15.13 0 0 0 1.77-6.82Zm-2.47-3.44 1.27-.34-.01-.02c-.8-1.5-1.91-3.02-3.17-4.24a8.48 8.48 0 0 0-3.74-2.31 3.01 3.01 0 0 0-3 .9h-.02c0 .02-.02.03-.03.04l-.1.13-.3.41a24.92 24.92 0 0 0-2.47 4.88 8.79 8.79 0 0 0-.65 3.39 1.4 1.4 0 0 1 2.58.55l.03-.01c.78-.26 1.55-.6 2.24-.92l.34-.15a45.7 45.7 0 0 1 6.77-2.24l.26-.07Z" clip-rule="evenodd"/><path fill="#000" d="M256.96 158.45c.4.66.19 1.53-.48 1.93a15.1 15.1 0 0 0-4.36 4.32c-.57.93-.77 1.66-.72 2.17.04.37.24.86 1.22 1.33.58.28 1.4.55 2.43.86l.68.2c.82.24 1.72.51 2.59.8 1.1.4 2.25.85 3.23 1.46.98.6 1.9 1.4 2.42 2.52.67 1.43.7 2.84-.1 4a5.03 5.03 0 0 1-3 1.8c-1.1.27-2.32.34-3.4.3-1.07-.05-2.12-.2-2.87-.46a1.4 1.4 0 1 1 .89-2.67c.42.14 1.18.27 2.1.31.9.04 1.84-.03 2.61-.22.82-.2 1.22-.48 1.36-.69.06-.08.24-.36-.14-1.18-.2-.42-.61-.86-1.34-1.31-.73-.45-1.64-.83-2.68-1.19-.8-.28-1.62-.52-2.44-.76l-.72-.22a20.5 20.5 0 0 1-2.84-1.01c-1.66-.8-2.63-2.03-2.8-3.58a6.43 6.43 0 0 1 1.12-3.93 17.84 17.84 0 0 1 5.3-5.27 1.4 1.4 0 0 1 1.94.49ZM222.73 164.96a4.4 4.4 0 0 0-3-.16c-.93.3-1.66.93-2.22 1.65-1.08 1.4-1.72 3.43-2.11 5.41-.79 4-.73 8.65-.49 10.17a9.65 9.65 0 0 0 5 7.13 8.1 8.1 0 0 0 8.66-.76 11.5 11.5 0 0 0 2.88-3.24l.74-1.2c.41-.69.8-1.31 1.26-1.93a1.4 1.4 0 1 0-2.26-1.7c-.54.73-1.05 1.57-1.5 2.33h-.01l-.6.98a8.73 8.73 0 0 1-2.16 2.48 5.3 5.3 0 0 1-5.72.53 6.84 6.84 0 0 1-3.5-5.06c-.19-1.16-.27-5.48.46-9.18.37-1.87.9-3.37 1.58-4.24.32-.41.61-.6.86-.69.24-.08.59-.1 1.11.1.16.07.52.32.88.76.37.46.5.82.52.93a1.4 1.4 0 1 0 2.8-.31 4.9 4.9 0 0 0-1.14-2.4 5.33 5.33 0 0 0-2.04-1.6Z"/><path fill="#000" fill-rule="evenodd" d="M247.89 175.28c.32-4.7-2.63-8.74-5.96-10.1a5.41 5.41 0 0 0-5.34.47c-1.6 1.17-2.57 3.28-2.83 6.17v.04a6.2 6.2 0 0 0-.19 5.11 9.36 9.36 0 0 0 4.39 4.72c1.88.97 4.24 1.38 6.28.37 2.12-1.04 3.41-3.36 3.65-6.78Zm-9.64-7.35c-.5.35-1.03 1.06-1.37 2.33.51.52.54 1.36.04 1.92a3.45 3.45 0 0 0-.73 3.77 6.55 6.55 0 0 0 3.07 3.24c1.4.73 2.77.82 3.73.35.9-.44 1.9-1.6 2.09-4.45.24-3.47-1.99-6.4-4.21-7.3-1.07-.43-1.97-.34-2.62.14ZM35.41 277.23c1.09-.3 1.82-.4 2.32-.38.46.02.6.13.65.2.1.08.26.33.38.98.12.63.17 1.5.17 2.66a1.4 1.4 0 1 0 2.81 0c0-1.2-.05-2.28-.21-3.18a4.58 4.58 0 0 0-1.15-2.45c-.7-.7-1.6-.99-2.55-1.02-.92-.03-1.98.15-3.15.47-6.22 1.68-12.47 3.06-18.76 4.44l-7.3 1.62c-1.8.41-3.2 1-4.06 1.97a3.65 3.65 0 0 0-.72 3.48 14.21 14.21 0 0 0 1.63 3.56c.51.93 1.03 1.87 1.46 2.86l.04.14.11.46a71.76 71.76 0 0 1 1.14 7.14 56.6 56.6 0 0 1-1.17-2.36c-.35-.72-.7-1.45-1.04-2.1-.48-.94-1.02-1.9-1.56-2.49a1.4 1.4 0 1 0-2.08 1.9c.25.28.64.91 1.14 1.88.32.62.64 1.29.98 1.99l.54 1.12a32.8 32.8 0 0 0 1.63 3c.28.44.58.85.9 1.19.29.3.74.7 1.35.86.58.15 1.16-.04 1.56-.43.3-.31.44-.68.5-.9.15-.48.18-1.06.19-1.59 0-1.12-.14-2.6-.33-4.05a74.72 74.72 0 0 0-1-5.8c-.1-.38-.2-.8-.31-1.07-.5-1.13-1.08-2.2-1.6-3.13l-.2-.39a11.83 11.83 0 0 1-1.15-2.48c-.14-.56-.05-.76.1-.92.25-.28.92-.71 2.57-1.09l7.22-1.6a408.87 408.87 0 0 0 18.95-4.49ZM8.28 303.04c0 .01 0 .01 0 0Z" clip-rule="evenodd"/><path fill="#000" fill-rule="evenodd" d="M21.86 289.2c0-.87.35-1.34.89-1.64.62-.35 1.6-.5 2.8-.35.5.06.77.2.9.31.13.1.23.24.3.48.16.55.1 1.44-.24 2.67a29.16 29.16 0 0 1-1.63 4.24c-.4.9-.78 1.8-.97 2.42-.08.29-.22.63-.39 1.05l-.15.4a9.66 9.66 0 0 0-.58 1.86c-.05.32-.09.74.02 1.17.13.49.44.99 1 1.28.51.26 1.05.27 1.48.21.44-.05.92-.2 1.43-.4 3.33-1.29 6.7-2.34 10.06-2.34a1.4 1.4 0 1 0 0-2.82c-3.86 0-7.59 1.19-10.96 2.5l.17-.43.12-.31c.18-.44.38-.94.5-1.37.13-.44.42-1.1.81-1.99l.32-.73a31.8 31.8 0 0 0 1.48-3.99c.37-1.33.62-2.87.23-4.21a3.7 3.7 0 0 0-1.24-1.89 4.55 4.55 0 0 0-2.3-.9 7.46 7.46 0 0 0-4.53.68 4.49 4.49 0 0 0-2.34 4.1 1.4 1.4 0 1 0 2.82 0Zm3.02 11.31h-.01Z" clip-rule="evenodd"/></svg>